# xmcd
#
# Track frame offsets:
#	150
#	14488
#	23725
#	35000
#	46838
#	56438
#	66200
#	78500
#	87088
#	97213
#	116238
#	126325
#	140125
#	153600
#	166570
#	177200
#
# Disc length: 2526
#
# Revision: 3
# Processed by: cddbd v1.5.1PL0 Copyright (c) Steve Scherf et al.
# Submitted via: DiscPlay 4.0.4
# Normalized: r1:TDELIM( - ),TSWAP
#
DISCID=d909dc10
DTITLE=Various Artist - Country Blues
DYEAR=1900
DGENRE=
TTITLE0=Dave Dudley - Ballad of Forty Dollars
TTITLE1=George Jones - Singin' the Blues
TTITLE2=Roger Miller - King of the Road
TTITLE3=Jerry Lee Lewis - What's Made Milwaukee Famous
TTITLE4=Charlie Rich - Lonely Weekends
TTITLE5=Dave Dudley - Don't Fence me in
TTITLE6=Roy Drusky - Four Strong winds
TTITLE7=Roger Miller - Dang Me
TTITLE8=Dave Dudley - Six Days on the Road
TTITLE9=Torn T. - Old Dogs, Children and Watermelon Win
TTITLE10=George Jones - I Walk the Line
TTITLE11=Patti Page - The Tennessee Waltz
TTITLE12=Faron Young - San Antonio Rose
TTITLE13=Johnny Tillotson - It Keeps Right on a hurtin
TTITLE14=Jerry Lee Lewis - He'll have to go
TTITLE15=Joey Heatherton - I'm Sorry
EXTD=
EXTT0=
EXTT1=
EXTT2=
EXTT3=
EXTT4=
EXTT5=
EXTT6=
EXTT7=
EXTT8=
EXTT9=
EXTT10=
EXTT11=
EXTT12=
EXTT13=
EXTT14=
EXTT15=
PLAYORDER=
